# xmcd
# 
# Track frame offsets:
#     150
#     15266
#     34459
#     55515
#     77127
#     98718
#     113290
#     132619
#     147207
#     170230
#     184460
#     202088
#     222443
# 
# Disc length: 3192
# 
# Revision: 2
# Processed by: cddbd v1.5.2PL0 Copyright (c) Steve Scherf et al.
# Submitted via: fre:ac v1.0.31
# 
DISCID=bb0c760d
DTITLE=Venom - Storm The Gates
DYEAR=2018
DGENRE=Rock/Pop
TTITLE0=Bring Out Your Dead
TTITLE1=Notorious
TTITLE2=I Dark Lord
TTITLE3=100 Miles To Hell
TTITLE4=Dark Night (Of The Soul)
TTITLE5=Beaten To A Pulp
TTITLE6=Destroyer
TTITLE7=The Mighty Have Fallen
TTITLE8=Over My Dead Body
TTITLE9=Suffering Dictates
TTITLE10=We The Loud
TTITLE11=Immortal
TTITLE12=Storm The Gates
EXTD=MARO\n
EXTT0=
EXTT1=
EXTT2=
EXTT3=
EXTT4=
EXTT5=
EXTT6=
EXTT7=
EXTT8=
EXTT9=
EXTT10=
EXTT11=
EXTT12=
PLAYORDER=
